<?xml version="1.0" encoding="UTF-8"?>
<svg xmlns="http://www.w3.org/2000/svg" xmlns:xlink="http://www.w3.org/1999/xlink" width="35pt" height="35pt" viewBox="0 0 35 35" version="1.1">
<g id="surface1">
<path style=" stroke:none;fill-rule:nonzero;fill:rgb(0%,0%,0%);fill-opacity:1;" d="M 34.539062 9.714844 L 34.539062 29.144531 C 34.539062 30.933594 33.089844 32.378906 31.300781 32.378906 L 3.238281 32.378906 C 1.449219 32.378906 0 30.933594 0 29.144531 L 0 9.714844 C 0 7.925781 1.449219 6.476562 3.238281 6.476562 L 9.175781 6.476562 L 10.003906 4.253906 C 10.480469 2.996094 11.683594 2.160156 13.035156 2.160156 L 21.496094 2.160156 C 22.847656 2.160156 24.050781 2.996094 24.527344 4.253906 L 25.363281 6.476562 L 31.300781 6.476562 C 33.089844 6.476562 34.539062 7.925781 34.539062 9.714844 Z M 25.363281 19.429688 C 25.363281 14.96875 21.730469 11.332031 17.269531 11.332031 C 12.808594 11.332031 9.175781 14.96875 9.175781 19.429688 C 9.175781 23.890625 12.808594 27.523438 17.269531 27.523438 C 21.730469 27.523438 25.363281 23.890625 25.363281 19.429688 Z M 23.207031 19.429688 C 23.207031 22.703125 20.542969 25.363281 17.269531 25.363281 C 13.996094 25.363281 11.332031 22.703125 11.332031 19.429688 C 11.332031 16.15625 13.996094 13.492188 17.269531 13.492188 C 20.542969 13.492188 23.207031 16.15625 23.207031 19.429688 Z M 23.207031 19.429688 "/>
</g>
</svg>
