<?xml version="1.0" encoding="UTF-8"?>
<svg xmlns="http://www.w3.org/2000/svg" xmlns:xlink="http://www.w3.org/1999/xlink" width="35pt" height="35pt" viewBox="0 0 35 35" version="1.1">
<g id="surface1">
<path style=" stroke:none;fill-rule:nonzero;fill:rgb(0%,0%,0%);fill-opacity:1;" d="M 17.269531 0.539062 C 8.023438 0.539062 0.539062 8.023438 0.539062 17.269531 C 0.539062 26.515625 8.023438 34 17.269531 34 C 26.515625 34 34 26.515625 34 17.269531 C 34 8.023438 26.515625 0.539062 17.269531 0.539062 Z M 23.511719 21.660156 L 22.164062 23.339844 C 21.785156 23.808594 21.109375 23.878906 20.644531 23.511719 L 16.117188 20.15625 C 15.480469 19.644531 15.109375 18.871094 15.109375 18.050781 L 15.109375 7.554688 C 15.109375 6.960938 15.597656 6.476562 16.191406 6.476562 L 18.347656 6.476562 C 18.941406 6.476562 19.429688 6.960938 19.429688 7.554688 L 19.429688 17.269531 L 23.339844 20.140625 C 23.808594 20.507812 23.878906 21.191406 23.511719 21.660156 Z M 23.511719 21.660156 "/>
</g>
</svg>
