<?xml version="1.0" encoding="UTF-8"?>
<svg xmlns="http://www.w3.org/2000/svg" xmlns:xlink="http://www.w3.org/1999/xlink" width="44pt" height="35pt" viewBox="0 0 44 35" version="1.1">
<g id="surface1">
<path style=" stroke:none;fill-rule:nonzero;fill:rgb(0%,0%,0%);fill-opacity:1;" d="M 34.75 13.054688 L 34.183594 14.035156 C 33.980469 14.402344 33.550781 14.550781 33.164062 14.402344 C 32.363281 14.105469 31.628906 13.671875 30.984375 13.136719 C 30.675781 12.875 30.585938 12.417969 30.789062 12.054688 L 31.355469 11.085938 C 30.882812 10.539062 30.519531 9.902344 30.269531 9.207031 L 29.152344 9.207031 C 28.742188 9.207031 28.394531 8.910156 28.324219 8.5 C 28.191406 7.679688 28.179688 6.824219 28.324219 5.96875 C 28.394531 5.558594 28.742188 5.253906 29.152344 5.253906 L 30.269531 5.253906 C 30.519531 4.570312 30.882812 3.929688 31.355469 3.382812 L 30.789062 2.402344 C 30.585938 2.050781 30.667969 1.59375 30.984375 1.332031 C 31.628906 0.796875 32.375 0.363281 33.164062 0.0585938 C 33.550781 -0.078125 33.980469 0.0703125 34.183594 0.433594 L 34.75 1.414062 C 35.460938 1.277344 36.183594 1.277344 36.898438 1.414062 L 37.449219 0.433594 C 37.652344 0.0703125 38.082031 -0.078125 38.480469 0.0585938 C 39.269531 0.363281 40.007812 0.796875 40.652344 1.332031 C 40.96875 1.59375 41.046875 2.050781 40.84375 2.402344 L 40.289062 3.382812 C 40.753906 3.929688 41.125 4.570312 41.363281 5.253906 L 42.484375 5.253906 C 42.890625 5.253906 43.238281 5.546875 43.308594 5.957031 C 43.445312 6.777344 43.453125 7.644531 43.308594 8.5 C 43.238281 8.910156 42.890625 9.207031 42.484375 9.207031 L 41.363281 9.207031 C 41.125 9.902344 40.753906 10.539062 40.289062 11.085938 L 40.84375 12.054688 C 41.046875 12.417969 40.96875 12.875 40.652344 13.136719 C 40.007812 13.671875 39.269531 14.105469 38.480469 14.402344 C 38.082031 14.550781 37.652344 14.402344 37.449219 14.035156 L 36.898438 13.054688 C 36.183594 13.183594 35.460938 13.183594 34.75 13.054688 Z M 34.035156 9.035156 C 36.648438 11.0625 39.621094 8.054688 37.609375 5.421875 C 34.996094 3.394531 32.023438 6.402344 34.035156 9.035156 Z M 26.210938 19.5625 L 28.496094 20.703125 C 29.183594 21.101562 29.480469 21.945312 29.207031 22.695312 C 28.609375 24.347656 27.421875 25.863281 26.3125 27.195312 C 25.816406 27.800781 24.945312 27.949219 24.265625 27.558594 L 22.289062 26.410156 C 21.203125 27.34375 19.933594 28.085938 18.566406 28.574219 L 18.566406 30.875 C 18.566406 31.660156 18 32.34375 17.222656 32.480469 C 15.558594 32.765625 13.804688 32.789062 12.078125 32.480469 C 11.296875 32.34375 10.71875 31.671875 10.71875 30.875 L 10.71875 28.574219 C 9.339844 28.085938 8.085938 27.34375 7 26.410156 L 5.019531 27.546875 C 4.34375 27.949219 3.472656 27.800781 2.960938 27.183594 C 1.867188 25.863281 0.699219 24.347656 0.101562 22.695312 C -0.167969 21.953125 0.125 21.113281 0.8125 20.703125 L 3.074219 19.5625 C 2.804688 18.125 2.804688 16.65625 3.074219 15.222656 L 0.8125 14.070312 C 0.125 13.671875 -0.179688 12.828125 0.101562 12.089844 C 0.699219 10.4375 1.867188 8.910156 2.960938 7.585938 C 3.472656 6.984375 4.332031 6.824219 5.019531 7.222656 L 7 8.375 C 8.085938 7.441406 9.339844 6.6875 10.71875 6.210938 L 10.71875 3.90625 C 10.71875 3.121094 11.273438 2.4375 12.054688 2.300781 C 13.714844 2.003906 15.480469 1.992188 17.210938 2.289062 C 17.992188 2.425781 18.566406 3.097656 18.566406 3.90625 L 18.566406 6.199219 C 19.933594 6.6875 21.203125 7.429688 22.289062 8.363281 L 24.265625 7.222656 C 24.945312 6.824219 25.816406 6.972656 26.3125 7.578125 C 27.421875 8.910156 28.574219 10.425781 29.171875 12.078125 C 29.445312 12.828125 29.183594 13.660156 28.496094 14.070312 L 26.210938 15.222656 C 26.472656 16.65625 26.472656 18.125 26.210938 19.5625 Z M 18.226562 20.996094 C 22.242188 15.734375 16.28125 9.730469 11.058594 13.773438 C 7.042969 19.039062 13.003906 25.042969 18.226562 20.996094 Z M 34.75 33.484375 L 34.183594 34.464844 C 33.980469 34.828125 33.550781 34.976562 33.164062 34.839844 C 32.363281 34.53125 31.628906 34.101562 30.984375 33.5625 C 30.675781 33.300781 30.585938 32.847656 30.789062 32.492188 L 31.355469 31.515625 C 30.882812 30.96875 30.519531 30.328125 30.269531 29.644531 L 29.152344 29.644531 C 28.742188 29.644531 28.394531 29.347656 28.324219 28.9375 C 28.191406 28.117188 28.179688 27.253906 28.324219 26.398438 C 28.394531 25.988281 28.742188 25.691406 29.152344 25.691406 L 30.269531 25.691406 C 30.519531 24.996094 30.882812 24.359375 31.355469 23.8125 L 30.789062 22.84375 C 30.585938 22.480469 30.667969 22.023438 30.984375 21.761719 C 31.628906 21.226562 32.375 20.792969 33.164062 20.496094 C 33.550781 20.347656 33.980469 20.496094 34.183594 20.859375 L 34.75 21.839844 C 35.460938 21.714844 36.183594 21.714844 36.898438 21.839844 L 37.449219 20.859375 C 37.652344 20.496094 38.082031 20.347656 38.480469 20.496094 C 39.269531 20.792969 40.007812 21.226562 40.652344 21.761719 C 40.96875 22.023438 41.046875 22.480469 40.84375 22.84375 L 40.289062 23.8125 C 40.753906 24.359375 41.125 24.996094 41.363281 25.691406 L 42.484375 25.691406 C 42.890625 25.691406 43.238281 25.988281 43.308594 26.398438 C 43.445312 27.21875 43.453125 28.074219 43.308594 28.925781 C 43.238281 29.335938 42.890625 29.644531 42.484375 29.644531 L 41.363281 29.644531 C 41.125 30.328125 40.753906 30.96875 40.289062 31.515625 L 40.84375 32.492188 C 41.046875 32.847656 40.96875 33.300781 40.652344 33.5625 C 40.007812 34.101562 39.269531 34.53125 38.480469 34.839844 C 38.082031 34.976562 37.652344 34.828125 37.449219 34.464844 L 36.898438 33.484375 C 36.183594 33.621094 35.460938 33.621094 34.75 33.484375 Z M 34.035156 29.460938 C 36.648438 31.492188 39.621094 28.484375 37.609375 25.851562 C 34.996094 23.835938 32.023438 26.832031 34.035156 29.460938 Z M 34.035156 29.460938 "/>
</g>
</svg>
