<?xml version="1.0" encoding="UTF-8"?>
<svg xmlns="http://www.w3.org/2000/svg" xmlns:xlink="http://www.w3.org/1999/xlink" width="41pt" height="35pt" viewBox="0 0 41 35" version="1.1">
<g id="surface1">
<path style=" stroke:none;fill-rule:nonzero;fill:rgb(0%,0%,0%);fill-opacity:1;" d="M 28.28125 5.777344 L 34.613281 12.039062 C 34.886719 12.304688 34.886719 12.730469 34.613281 13 L 19.269531 28.15625 L 12.761719 28.871094 C 11.886719 28.96875 11.148438 28.242188 11.242188 27.386719 L 11.96875 20.933594 L 27.3125 5.777344 C 27.574219 5.511719 28.015625 5.511719 28.28125 5.777344 Z M 39.660156 4.1875 L 36.234375 0.800781 C 35.160156 -0.257812 33.433594 -0.257812 32.359375 0.800781 L 29.871094 3.257812 C 29.597656 3.523438 29.597656 3.953125 29.871094 4.21875 L 36.203125 10.476562 C 36.46875 10.746094 36.910156 10.746094 37.171875 10.476562 L 39.660156 8.023438 C 40.722656 6.953125 40.722656 5.246094 39.660156 4.1875 Z M 26.972656 24.03125 L 26.972656 31.105469 L 4.5 31.105469 L 4.5 8.886719 L 20.640625 8.886719 C 20.863281 8.886719 21.074219 8.800781 21.230469 8.640625 L 24.042969 5.863281 C 24.582031 5.339844 24.203125 4.445312 23.445312 4.445312 L 3.371094 4.445312 C 1.507812 4.445312 0 5.9375 0 7.777344 L 0 32.214844 C 0 34.050781 1.507812 35.546875 3.371094 35.546875 L 28.101562 35.546875 C 29.957031 35.546875 31.472656 34.050781 31.472656 32.214844 L 31.472656 21.253906 C 31.472656 20.519531 30.566406 20.144531 30.027344 20.667969 L 27.214844 23.445312 C 27.070312 23.605469 26.972656 23.820312 26.972656 24.03125 Z M 26.972656 24.03125 "/>
</g>
</svg>
