<?xml version="1.0" encoding="UTF-8"?>
<svg xmlns="http://www.w3.org/2000/svg" xmlns:xlink="http://www.w3.org/1999/xlink" width="15pt" height="15pt" viewBox="0 0 15 15" version="1.1">
<g id="surface1">
<path style=" stroke:none;fill-rule:nonzero;fill:rgb(0%,0%,0%);fill-opacity:1;" d="M 7.5 0.234375 C 3.359375 0.234375 0 3.488281 0 7.5 C 0 11.511719 3.359375 14.765625 7.5 14.765625 C 11.640625 14.765625 15 11.511719 15 7.5 C 15 3.488281 11.640625 0.234375 7.5 0.234375 Z M 9.988281 10.710938 C 9.871094 10.824219 9.746094 10.945312 9.648438 11.042969 C 9.554688 11.128906 9.492188 11.238281 9.460938 11.355469 C 9.414062 11.519531 9.378906 11.6875 9.316406 11.847656 L 8.789062 13.222656 C 8.375 13.308594 7.941406 13.359375 7.5 13.359375 L 7.5 12.558594 C 7.550781 12.1875 7.269531 11.496094 6.816406 11.054688 C 6.632812 10.878906 6.53125 10.640625 6.53125 10.394531 L 6.53125 9.453125 C 6.53125 9.113281 6.34375 8.800781 6.035156 8.636719 C 5.601562 8.402344 4.980469 8.078125 4.558594 7.871094 C 4.210938 7.703125 3.890625 7.484375 3.601562 7.234375 L 3.578125 7.210938 C 3.371094 7.03125 3.1875 6.828125 3.03125 6.605469 C 2.746094 6.203125 2.285156 5.539062 1.984375 5.105469 C 2.605469 3.773438 3.71875 2.703125 5.105469 2.121094 L 5.832031 2.472656 C 6.152344 2.628906 6.53125 2.402344 6.53125 2.054688 L 6.53125 1.722656 C 6.773438 1.683594 7.019531 1.660156 7.269531 1.652344 L 8.125 2.480469 C 8.316406 2.664062 8.316406 2.960938 8.125 3.144531 L 7.984375 3.28125 L 7.671875 3.585938 C 7.578125 3.675781 7.578125 3.824219 7.671875 3.914062 L 7.8125 4.054688 C 7.90625 4.144531 7.90625 4.292969 7.8125 4.382812 L 7.570312 4.617188 C 7.527344 4.664062 7.464844 4.6875 7.398438 4.6875 L 7.128906 4.6875 C 7.066406 4.6875 7.003906 4.710938 6.960938 4.753906 L 6.660156 5.035156 C 6.582031 5.109375 6.566406 5.21875 6.613281 5.308594 L 7.082031 6.222656 C 7.164062 6.378906 7.046875 6.5625 6.867188 6.5625 L 6.695312 6.5625 C 6.636719 6.5625 6.582031 6.542969 6.539062 6.503906 L 6.257812 6.269531 C 6.128906 6.160156 5.949219 6.125 5.785156 6.179688 L 4.84375 6.480469 C 4.695312 6.53125 4.597656 6.664062 4.597656 6.816406 C 4.597656 6.945312 4.675781 7.066406 4.796875 7.128906 L 5.132812 7.289062 C 5.417969 7.429688 5.730469 7.5 6.046875 7.5 C 6.367188 7.5 6.730469 8.300781 7.015625 8.4375 L 9.035156 8.4375 C 9.292969 8.4375 9.539062 8.535156 9.71875 8.710938 L 10.132812 9.113281 C 10.304688 9.28125 10.402344 9.507812 10.402344 9.746094 C 10.402344 10.109375 10.253906 10.457031 9.988281 10.710938 Z M 12.609375 8.035156 C 12.4375 7.992188 12.28125 7.886719 12.183594 7.742188 L 11.640625 6.953125 C 11.476562 6.714844 11.476562 6.410156 11.640625 6.171875 L 12.230469 5.3125 C 12.300781 5.210938 12.398438 5.128906 12.511719 5.074219 L 12.902344 4.882812 C 13.3125 5.671875 13.546875 6.558594 13.546875 7.5 C 13.546875 7.753906 13.527344 8.003906 13.492188 8.25 Z M 12.609375 8.035156 "/>
</g>
</svg>
