<?xml version="1.0" encoding="UTF-8"?>
<svg xmlns="http://www.w3.org/2000/svg" xmlns:xlink="http://www.w3.org/1999/xlink" width="19pt" height="16pt" viewBox="0 0 19 16" version="1.1">
<g id="surface1">
<path style=" stroke:none;fill-rule:nonzero;fill:rgb(0%,0%,0%);fill-opacity:1;" d="M 11.417969 7.226562 C 11.472656 7.53125 11.511719 7.839844 11.511719 8.238281 C 11.511719 11.703125 9.339844 14.167969 6.058594 14.167969 C 2.917969 14.167969 0.378906 11.449219 0.378906 8.09375 C 0.378906 4.738281 2.917969 2.023438 6.058594 2.023438 C 7.59375 2.023438 8.867188 2.617188 9.859375 3.617188 L 8.320312 5.195312 C 7.902344 4.765625 7.167969 4.257812 6.058594 4.257812 C 4.121094 4.257812 2.539062 5.976562 2.539062 8.09375 C 2.539062 10.210938 4.121094 11.929688 6.058594 11.929688 C 8.308594 11.929688 9.148438 10.195312 9.285156 9.3125 L 6.058594 9.3125 L 6.058594 7.226562 Z M 16.902344 7.429688 L 16.902344 5.664062 L 15.246094 5.664062 L 15.246094 7.429688 L 13.59375 7.429688 L 13.59375 9.199219 L 15.246094 9.199219 L 15.246094 10.964844 L 16.902344 10.964844 L 16.902344 9.199219 L 18.550781 9.199219 L 18.550781 7.429688 Z M 16.902344 7.429688 "/>
</g>
</svg>
