<?xml version="1.0" encoding="UTF-8"?>
<svg xmlns="http://www.w3.org/2000/svg" xmlns:xlink="http://www.w3.org/1999/xlink" width="15pt" height="15pt" viewBox="0 0 15 15" version="1.1">
<g id="surface1">
<path style=" stroke:none;fill-rule:nonzero;fill:rgb(0%,0%,0%);fill-opacity:1;" d="M 9.570312 5.429688 C 11.320312 7.183594 11.296875 9.992188 9.578125 11.71875 C 9.574219 11.722656 9.570312 11.726562 9.570312 11.730469 L 7.601562 13.699219 C 5.863281 15.433594 3.039062 15.433594 1.300781 13.699219 C -0.433594 11.960938 -0.433594 9.136719 1.300781 7.398438 L 2.390625 6.3125 C 2.675781 6.023438 3.175781 6.214844 3.1875 6.625 C 3.207031 7.144531 3.300781 7.664062 3.472656 8.167969 C 3.53125 8.339844 3.488281 8.527344 3.363281 8.65625 L 2.980469 9.039062 C 2.15625 9.859375 2.132812 11.195312 2.945312 12.027344 C 3.765625 12.863281 5.117188 12.867188 5.941406 12.039062 L 7.910156 10.070312 C 8.738281 9.246094 8.734375 7.910156 7.910156 7.089844 C 7.804688 6.980469 7.695312 6.894531 7.609375 6.835938 C 7.484375 6.753906 7.410156 6.617188 7.40625 6.46875 C 7.394531 6.160156 7.503906 5.839844 7.746094 5.59375 L 8.363281 4.976562 C 8.527344 4.816406 8.78125 4.796875 8.96875 4.925781 C 9.183594 5.078125 9.382812 5.246094 9.570312 5.429688 Z M 13.699219 1.300781 C 11.960938 -0.433594 9.136719 -0.433594 7.398438 1.300781 L 5.429688 3.269531 C 5.429688 3.273438 5.425781 3.277344 5.421875 3.28125 C 3.703125 5.007812 3.679688 7.816406 5.429688 9.570312 C 5.617188 9.753906 5.816406 9.921875 6.03125 10.074219 C 6.21875 10.203125 6.472656 10.183594 6.636719 10.023438 L 7.253906 9.40625 C 7.496094 9.160156 7.605469 8.839844 7.59375 8.53125 C 7.589844 8.382812 7.515625 8.246094 7.390625 8.164062 C 7.304688 8.105469 7.195312 8.019531 7.089844 7.910156 C 6.265625 7.089844 6.261719 5.753906 7.089844 4.929688 L 9.058594 2.960938 C 9.882812 2.132812 11.234375 2.136719 12.054688 2.972656 C 12.867188 3.804688 12.84375 5.140625 12.019531 5.960938 L 11.636719 6.34375 C 11.511719 6.472656 11.46875 6.660156 11.527344 6.832031 C 11.699219 7.335938 11.792969 7.855469 11.8125 8.375 C 11.824219 8.785156 12.320312 8.976562 12.609375 8.6875 L 13.699219 7.601562 C 15.433594 5.863281 15.433594 3.039062 13.699219 1.300781 Z M 13.699219 1.300781 "/>
</g>
</svg>
