<?xml version="1.0" encoding="UTF-8"?>
<svg xmlns="http://www.w3.org/2000/svg" xmlns:xlink="http://www.w3.org/1999/xlink" width="14pt" height="15pt" viewBox="0 0 14 15" version="1.1">
<g id="surface1">
<path style=" stroke:none;fill-rule:nonzero;fill:rgb(0%,0%,0%);fill-opacity:1;" d="M 3.09375 13.28125 L 0.226562 13.28125 L 0.226562 4.414062 L 3.09375 4.414062 Z M 1.660156 3.207031 C 0.742188 3.207031 0 2.476562 0 1.59375 C 0 0.714844 0.742188 0 1.660156 0 C 2.574219 0 3.316406 0.714844 3.316406 1.59375 C 3.316406 2.476562 2.574219 3.207031 1.660156 3.207031 Z M 13.8125 13.28125 L 10.957031 13.28125 L 10.957031 8.964844 C 10.957031 7.933594 10.933594 6.617188 9.464844 6.617188 C 7.976562 6.617188 7.746094 7.734375 7.746094 8.890625 L 7.746094 13.28125 L 4.886719 13.28125 L 4.886719 4.414062 L 7.632812 4.414062 L 7.632812 5.621094 L 7.675781 5.621094 C 8.054688 4.929688 8.992188 4.191406 10.382812 4.191406 C 13.285156 4.191406 13.816406 6.027344 13.816406 8.410156 L 13.816406 13.28125 Z M 13.8125 13.28125 "/>
</g>
</svg>
