<?xml version="1.0" encoding="UTF-8"?>
<svg xmlns="http://www.w3.org/2000/svg" xmlns:xlink="http://www.w3.org/1999/xlink" width="26pt" height="35pt" viewBox="0 0 26 35" version="1.1">
<g id="surface1">
<path style=" stroke:none;fill-rule:nonzero;fill:rgb(0%,0%,0%);fill-opacity:1;" d="M 12.828125 24.292969 C 16.691406 24.292969 19.824219 21.328125 19.824219 17.667969 L 19.824219 6.625 C 19.824219 2.964844 16.691406 0 12.828125 0 C 8.96875 0 5.832031 2.964844 5.832031 6.625 L 5.832031 17.667969 C 5.832031 21.328125 8.96875 24.292969 12.828125 24.292969 Z M 24.488281 13.25 L 23.324219 13.25 C 22.679688 13.25 22.15625 13.746094 22.15625 14.355469 L 22.15625 17.667969 C 22.15625 22.828125 17.460938 26.976562 11.894531 26.457031 C 7.050781 26.007812 3.5 21.886719 3.5 17.273438 L 3.5 14.355469 C 3.5 13.746094 2.980469 13.25 2.332031 13.25 L 1.167969 13.25 C 0.519531 13.25 0 13.746094 0 14.355469 L 0 17.128906 C 0 23.316406 4.664062 28.828125 11.078125 29.664062 L 11.078125 32.023438 L 6.996094 32.023438 C 6.355469 32.023438 5.832031 32.515625 5.832031 33.128906 L 5.832031 34.230469 C 5.832031 34.84375 6.355469 35.335938 6.996094 35.335938 L 18.660156 35.335938 C 19.304688 35.335938 19.824219 34.84375 19.824219 34.230469 L 19.824219 33.128906 C 19.824219 32.515625 19.304688 32.023438 18.660156 32.023438 L 14.578125 32.023438 L 14.578125 29.691406 C 20.828125 28.882812 25.65625 23.800781 25.65625 17.667969 L 25.65625 14.355469 C 25.65625 13.746094 25.136719 13.25 24.488281 13.25 Z M 24.488281 13.25 "/>
</g>
</svg>
