<?xml version="1.0" encoding="UTF-8"?>
<svg xmlns="http://www.w3.org/2000/svg" xmlns:xlink="http://www.w3.org/1999/xlink" width="15pt" height="15pt" viewBox="0 0 15 15" version="1.1">
<g id="surface1">
<path style=" stroke:none;fill-rule:nonzero;fill:rgb(0%,0%,0%);fill-opacity:1;" d="M 13.59375 0.9375 L 9.84375 0.9375 C 9.066406 0.9375 8.4375 1.566406 8.4375 2.34375 L 8.4375 6.09375 C 8.4375 6.871094 9.066406 7.5 9.84375 7.5 L 12.1875 7.5 L 12.1875 9.375 C 12.1875 10.410156 11.347656 11.25 10.3125 11.25 L 10.078125 11.25 C 9.6875 11.25 9.375 11.5625 9.375 11.953125 L 9.375 13.359375 C 9.375 13.75 9.6875 14.0625 10.078125 14.0625 L 10.3125 14.0625 C 12.902344 14.0625 15 11.964844 15 9.375 L 15 2.34375 C 15 1.566406 14.371094 0.9375 13.59375 0.9375 Z M 5.15625 0.9375 L 1.40625 0.9375 C 0.628906 0.9375 0 1.566406 0 2.34375 L 0 6.09375 C 0 6.871094 0.628906 7.5 1.40625 7.5 L 3.75 7.5 L 3.75 9.375 C 3.75 10.410156 2.910156 11.25 1.875 11.25 L 1.640625 11.25 C 1.25 11.25 0.9375 11.5625 0.9375 11.953125 L 0.9375 13.359375 C 0.9375 13.75 1.25 14.0625 1.640625 14.0625 L 1.875 14.0625 C 4.464844 14.0625 6.5625 11.964844 6.5625 9.375 L 6.5625 2.34375 C 6.5625 1.566406 5.933594 0.9375 5.15625 0.9375 Z M 5.15625 0.9375 "/>
</g>
</svg>
