<?xml version="1.0" encoding="UTF-8"?>
<svg xmlns="http://www.w3.org/2000/svg" xmlns:xlink="http://www.w3.org/1999/xlink" width="15pt" height="12pt" viewBox="0 0 15 12" version="1.1">
<g id="surface1">
<path style=" stroke:none;fill-rule:nonzero;fill:rgb(0%,0%,0%);fill-opacity:1;" d="M 14.757812 8.054688 L 12.398438 10.414062 C 12.179688 10.632812 11.820312 10.632812 11.601562 10.414062 L 9.242188 8.054688 C 9.023438 7.832031 9.023438 7.476562 9.242188 7.257812 L 9.496094 7.003906 C 9.71875 6.78125 10.085938 6.785156 10.304688 7.015625 L 11.25 8.019531 L 11.25 3.75 L 6.855469 3.75 C 6.707031 3.75 6.5625 3.691406 6.457031 3.585938 L 6.082031 3.210938 C 5.726562 2.855469 5.976562 2.25 6.480469 2.25 L 12.1875 2.25 C 12.5 2.25 12.75 2.5 12.75 2.8125 L 12.75 8.019531 L 13.695312 7.015625 C 13.914062 6.785156 14.28125 6.78125 14.503906 7.003906 L 14.757812 7.257812 C 14.976562 7.476562 14.976562 7.832031 14.757812 8.054688 Z M 8.542969 8.414062 C 8.4375 8.308594 8.292969 8.25 8.144531 8.25 L 3.75 8.25 L 3.75 3.980469 L 4.695312 4.984375 C 4.914062 5.214844 5.28125 5.21875 5.503906 4.996094 L 5.757812 4.742188 C 5.976562 4.523438 5.976562 4.167969 5.757812 3.945312 L 3.398438 1.585938 C 3.179688 1.367188 2.820312 1.367188 2.601562 1.585938 L 0.242188 3.945312 C 0.0234375 4.167969 0.0234375 4.523438 0.242188 4.742188 L 0.496094 4.996094 C 0.71875 5.21875 1.085938 5.214844 1.304688 4.984375 L 2.25 3.980469 L 2.25 9.1875 C 2.25 9.5 2.5 9.75 2.8125 9.75 L 8.519531 9.75 C 9.023438 9.75 9.273438 9.144531 8.917969 8.789062 Z M 8.542969 8.414062 "/>
</g>
</svg>
