<?xml version="1.0" encoding="UTF-8"?>
<svg xmlns="http://www.w3.org/2000/svg" xmlns:xlink="http://www.w3.org/1999/xlink" width="15pt" height="12pt" viewBox="0 0 15 12" version="1.1">
<g id="surface1">
<path style=" stroke:none;fill-rule:nonzero;fill:rgb(0%,0%,0%);fill-opacity:1;" d="M 14.878906 3.628906 C 10.726562 -0.210938 4.269531 -0.210938 0.121094 3.628906 C -0.0351562 3.773438 -0.0390625 4.019531 0.109375 4.167969 L 0.914062 4.964844 C 1.058594 5.109375 1.289062 5.109375 1.4375 4.972656 C 4.859375 1.839844 10.140625 1.839844 13.5625 4.972656 C 13.710938 5.109375 13.941406 5.109375 14.085938 4.964844 L 14.890625 4.167969 C 15.039062 4.019531 15.035156 3.773438 14.878906 3.628906 Z M 7.5 8.25 C 6.671875 8.25 6 8.921875 6 9.75 C 6 10.578125 6.671875 11.25 7.5 11.25 C 8.328125 11.25 9 10.578125 9 9.75 C 9 8.921875 8.328125 8.25 7.5 8.25 Z M 12.25 6.289062 C 9.546875 3.902344 5.449219 3.90625 2.75 6.289062 C 2.589844 6.433594 2.582031 6.683594 2.738281 6.832031 L 3.542969 7.628906 C 3.683594 7.769531 3.910156 7.777344 4.058594 7.648438 C 6.027344 5.949219 8.976562 5.953125 10.9375 7.648438 C 11.089844 7.777344 11.316406 7.769531 11.457031 7.628906 L 12.261719 6.832031 C 12.417969 6.683594 12.410156 6.433594 12.25 6.289062 Z M 12.25 6.289062 "/>
</g>
</svg>
